HIERARCHY
ROOT Hips
{
 OFFSET 0.000000 0.000000 0.000000
 CHANNELS 6 Xposition Yposition Zposition Yrotation Xrotation Zrotation
 JOINT Chest
 {
  OFFSET 0.000000 9.585900 0.002600
  CHANNELS 3 Yrotation Xrotation Zrotation
  JOINT Chest2
  {
   OFFSET 0.000000 9.601200 -0.005300
   CHANNELS 3 Yrotation Xrotation Zrotation
   JOINT Chest3
   {
    OFFSET 0.000000 9.561800 0.000000
    CHANNELS 3 Yrotation Xrotation Zrotation
    JOINT Chest4
    {
     OFFSET 0.000000 9.552100 0.000000
     CHANNELS 3 Yrotation Xrotation Zrotation
     JOINT Neck
     {
      OFFSET 0.000000 14.453000 0.000000
      CHANNELS 3 Yrotation Xrotation Zrotation
      JOINT Head
      {
       OFFSET 0.000000 8.936500 -0.011300
       CHANNELS 3 Yrotation Xrotation Zrotation
       End Site
       {
        OFFSET 0.000000 17.073600 -0.006000
       }
      }
     }
     JOINT RightCollar
     {
      OFFSET -2.921100 9.558500 0.000000
      CHANNELS 3 Yrotation Xrotation Zrotation
      JOINT RightShoulder
      {
       OFFSET -13.519700 0.000000 0.000000
       CHANNELS 3 Yrotation Xrotation Zrotation
       JOINT RightElbow
       {
        OFFSET 0.000000 -29.696600 0.000000
        CHANNELS 3 Yrotation Xrotation Zrotation
        JOINT RightWrist
        {
         OFFSET 0.000000 -24.004700 0.000000
         CHANNELS 3 Yrotation Xrotation Zrotation
         End Site
         {
          OFFSET 0.000000 -17.728500 0.000000
         }
        }
       }
      }
     }
     JOINT LeftCollar
     {
      OFFSET 2.921100 9.558500 0.000000
      CHANNELS 3 Yrotation Xrotation Zrotation
      JOINT LeftShoulder
      {
       OFFSET 13.519700 0.000000 0.000000
       CHANNELS 3 Yrotation Xrotation Zrotation
       JOINT LeftElbow
       {
        OFFSET 0.000000 -29.696600 0.000000
        CHANNELS 3 Yrotation Xrotation Zrotation
        JOINT LeftWrist
        {
         OFFSET 0.000000 -24.004700 0.000000
         CHANNELS 3 Yrotation Xrotation Zrotation
         End Site
         {
          OFFSET 0.000000 -17.728500 0.000000
         }
        }
       }
      }
     }
    }
   }
  }
 }
 JOINT RightHip
 {
  OFFSET -7.771700 -0.012900 -0.001300
  CHANNELS 3 Yrotation Xrotation Zrotation
  JOINT RightKnee
  {
   OFFSET 0.000000 -40.869800 0.001200
   CHANNELS 3 Yrotation Xrotation Zrotation
   JOINT RightAnkle
   {
    OFFSET 0.000000 -39.717900 0.002100
    CHANNELS 3 Yrotation Xrotation Zrotation
    JOINT RightToe
    {
     OFFSET 0.000000 -4.965400 11.033500
     CHANNELS 3 Yrotation Xrotation Zrotation
     End Site
     {
      OFFSET 0.000000 -1.423100 5.872300
     }
    }
   }
  }
 }
 JOINT LeftHip
 {
  OFFSET 7.771700 -0.012900 -0.001300
  CHANNELS 3 Yrotation Xrotation Zrotation
  JOINT LeftKnee
  {
   OFFSET 0.000000 -40.869800 0.001200
   CHANNELS 3 Yrotation Xrotation Zrotation
   JOINT LeftAnkle
   {
    OFFSET 0.000000 -39.717900 0.002100
    CHANNELS 3 Yrotation Xrotation Zrotation
    JOINT LeftToe
    {
     OFFSET 0.000000 -4.965400 11.033500
     CHANNELS 3 Yrotation Xrotation Zrotation
     End Site
     {
      OFFSET 0.000000 -1.423100 5.872300
     }
    }
   }
  }
 }
}
MOTION
Frames: 11
Frame Time: 0.008333
0.000000 85.388000 0.000000 0.000000 -5.767877 0.000000 0.000000 11.653817 0.000000 0.000000 -5.885947 0.000000 0.000000 -0.000000 0.000000 0.000000 -0.000000 0.000000 0.000000 12.528835 0.000000 0.000000 0.711642 0.000000 0.000000 -0.000000 0.000000 0.000000 0.000000 -90.000000 0.000000 -2.309062 0.000000 0.000000 2.309062 0.000000 0.000000 -0.000000 0.000000 0.000000 -0.000000 90.000000 0.000000 -2.309062 0.000000 0.000000 2.309062 0.000000 0.000000 8.520406 0.000000 0.000000 1.905762 0.000000 -0.000000 -4.658285 0.000000 0.000000 -0.000000 0.000000 0.000000 8.520406 0.000000 0.000000 1.905762 0.000000 -0.000000 -4.658285 0.000000 0.000000 -0.000000 0.000000
-37.522754 51.952506 23.463350 179.762358 -27.997848 0.804991 2.916720 27.304044 -2.548512 0.588993 4.790721 -0.465892 0.914952 7.571435 -0.715298 2.492935 22.179693 -1.807096 -1.979929 15.331662 -8.993789 -0.068956 -9.365610 -9.376517 10.599868 10.950502 12.765604 25.454890 -12.253015 -35.811983 -126.206001 -64.670955 71.564957 -10.154819 -6.129688 -17.585395 -10.730493 11.627205 -17.710757 -26.693644 -4.020281 43.478403 149.725760 -59.163913 -102.077288 18.862162 3.423940 -2.115578 -10.281126 -54.874074 -0.169899 -62.789008 83.402358 -70.808666 -3.754016 -9.769881 7.801689 0.180361 -0.456236 0.047397 1.127695 -52.511933 -3.223972 37.761510 83.177238 42.674040 -0.675622 -9.047010 -3.202204 0.114625 0.366006 0.053140
-37.521002 51.952978 23.463348 179.742334 -28.001817 0.801452 2.926312 27.297750 -2.536362 0.588920 4.788927 -0.465412 0.914992 7.568962 -0.714412 2.494095 22.176582 -1.804609 -1.984928 15.286160 -8.970167 -0.058529 -9.350463 -9.392060 10.591908 10.944538 12.758772 25.439942 -12.232703 -35.812445 -126.263758 -64.752624 71.615738 -10.193877 -6.071898 -17.602028 -10.728911 11.630878 -17.710072 -26.641451 -4.043933 43.466150 149.808944 -59.114856 -102.157310 18.858321 3.476737 -1.955086 -10.306579 -54.868272 -0.143614 -62.717163 83.406455 -70.732948 -3.741979 -9.761502 7.788520 0.177564 -0.459054 0.047690 1.116102 -52.507333 -3.199784 37.798637 83.177529 42.717425 -0.678553 -9.051845 -3.215523 0.120363 0.365060 0.054430
-37.520648 51.953127 23.463885 179.724951 -28.002640 0.804828 2.917098 27.278173 -2.537843 0.600016 4.795006 -0.466098 0.915274 7.565315 -0.713070 2.496150 22.172388 -1.801093 -1.985757 15.277026 -8.967726 -0.063332 -9.363544 -9.385710 10.589783 10.949474 12.750595 25.416809 -12.225541 -35.808846 -126.285987 -64.822388 71.635402 -10.146570 -6.033692 -17.648829 -10.731003 11.637874 -17.713575 -26.589129 -4.068477 43.461084 149.881731 -59.055089 -102.225820 18.858194 3.525999 -1.773957 -10.318493 -54.866792 -0.133353 -62.658153 83.407091 -70.669507 -3.728069 -9.755697 7.774837 0.169922 -0.454426 0.056381 1.116836 -52.506221 -3.189724 37.835851 83.175198 42.753153 -0.674358 -9.052164 -3.216210 0.116270 0.364035 0.051196
-37.519678 51.953122 23.464470 179.707355 -28.003377 0.804625 2.922408 27.269926 -2.531897 0.604638 4.792002 -0.467170 0.903769 7.548913 -0.704629 2.504810 22.164555 -1.792287 -1.990100 15.285822 -8.976868 -0.072550 -9.384107 -9.374416 10.590734 10.971850 12.734549 25.385780 -12.228401 -35.801320 -126.287354 -64.880953 71.639981 -10.094955 -6.003139 -17.679594 -10.734013 11.655782 -17.732103 -26.541275 -4.092111 43.462937 149.877123 -59.013773 -102.239939 18.883156 3.528568 -1.573630 -10.331167 -54.864407 -0.119125 -62.610672 83.401851 -70.616896 -3.706697 -9.746941 7.763358 0.161683 -0.455731 0.057949 1.113589 -52.505822 -3.176774 37.868574 83.175758 42.792362 -0.673329 -9.053816 -3.225940 0.120452 0.363221 0.050956
-37.520063 51.953302 23.464425 179.699748 -28.008645 0.807926 2.921724 27.270754 -2.532794 0.595851 4.787058 -0.464835 0.910741 7.547197 -0.704878 2.507085 22.157792 -1.786638 -1.993054 15.285408 -8.978737 -0.076031 -9.388588 -9.371904 10.591794 10.974278 12.727334 25.366857 -12.222923 -35.795325 -126.300531 -64.932803 71.635942 -10.078458 -5.980120 -17.670457 -10.734294 11.641621 -17.718944 -26.509800 -4.095071 43.434566 149.905950 -58.977230 -102.265707 18.914763 3.526687 -1.359593 -10.338794 -54.858911 -0.119878 -62.559044 83.402629 -70.564836 -3.697287 -9.734332 7.767876 0.158541 -0.462534 0.048169 1.115468 -52.500611 -3.176500 37.909888 83.172836 42.836837 -0.678763 -9.055205 -3.231676 0.122228 0.361644 0.052788
-37.520041 51.953571 23.463803 179.680755 -28.017716 0.814098 2.933903 27.274723 -2.529718 0.590866 4.779841 -0.461914 0.913443 7.545406 -0.703770 2.509851 22.154279 -1.782171 -1.995630 15.296967 -8.988798 -0.077293 -9.389534 -9.370957 10.590296 10.974609 12.720601 25.326497 -12.231975 -35.786736 -126.279766 -64.971266 71.616875 -10.074736 -5.966444 -17.629040 -10.735010 11.638661 -17.721113 -26.485831 -4.099681 43.426879 150.118068 -58.858740 -102.423489 18.893035 3.632545 -1.117190 -10.340607 -54.848775 -0.116545 -62.496724 83.403599 -70.503416 -3.680501 -9.723904 7.767103 0.151596 -0.469989 0.040241 1.123070 -52.491059 -3.172081 37.920884 83.176896 42.853514 -0.678542 -9.058779 -3.242044 0.128125 0.360234 0.056162
-37.518951 51.953176 23.464032 179.666090 -28.020989 0.811413 2.943033 27.270487 -2.519453 0.584775 4.763671 -0.455101 0.919814 7.549742 -0.705492 2.512367 22.164381 -1.785607 -2.000102 15.289159 -8.979355 -0.081404 -9.391912 -9.367181 10.587080 10.964071 12.717879 25.286512 -12.238804 -35.773904 -126.269248 -64.998592 71.597693 -10.082790 -5.958201 -17.558369 -10.737829 11.625610 -17.716616 -26.447782 -4.112597 43.429451 150.217607 -58.756919 -102.514121 18.883470 3.683609 -0.858560 -10.354454 -54.843465 -0.100715 -62.427686 83.404264 -70.428445 -3.674438 -9.706397 7.757283 0.152808 -0.477597 0.041076 1.113988 -52.489891 -3.153617 37.988885 83.177182 42.924004 -0.680789 -9.061748 -3.251012 0.130395 0.359506 0.057539
-37.517903 51.952282 23.464756 179.651651 -28.020658 0.807966 2.952976 27.257439 -2.506949 0.589323 4.768552 -0.456735 0.920832 7.540809 -0.701301 2.512518 22.170441 -1.785742 -2.000601 15.265542 -8.955308 -0.101123 -9.384868 -9.354942 10.581283 10.956547 12.715483 25.256490 -12.241389 -35.762037 -126.252182 -65.009802 71.586637 -10.096400 -5.968528 -17.496230 -10.742476 11.613640 -17.711810 -26.384477 -4.131598 43.473007 150.212828 -58.638470 -102.525773 18.879243 3.707179 -0.594661 -10.377229 -54.841455 -0.078775 -62.358314 83.395951 -70.355831 -3.654963 -9.685041 7.743672 0.144686 -0.480625 0.046335 1.106682 -52.492092 -3.137328 38.061413 83.173350 43.002957 -0.687790 -9.063501 -3.261750 0.136174 0.359612 0.058948
-37.517991 51.951034 23.465747 179.632100 -28.017942 0.812423 2.965867 27.241578 -2.499833 0.593351 4.774122 -0.458637 0.922356 7.534623 -0.698289 2.534259 22.146106 -1.766508 -2.024648 15.296520 -8.966690 -0.109897 -9.384582 -9.346137 10.557480 10.979349 12.706170 25.223469 -12.250155 -35.745202 -126.274782 -65.015662 71.564870 -10.118868 -5.956092 -17.380250 -10.769191 11.629929 -17.717066 -26.360511 -4.132781 43.465397 150.322239 -58.563770 -102.619990 18.873523 3.719809 -0.327949 -10.395389 -54.842466 -0.062399 -62.240865 83.397473 -70.241758 -3.633606 -9.667594 7.732482 0.134329 -0.479735 0.046573 1.104186 -52.499157 -3.125305 38.140525 83.173038 43.081348 -0.689814 -9.059353 -3.265983 0.134325 0.350285 0.057929
-37.516792 51.949543 23.466797 179.601977 -28.013937 0.812700 2.995146 27.230014 -2.484149 0.590974 4.762730 -0.453850 0.927639 7.547062 -0.702791 2.541361 22.140125 -1.760394 -2.031449 15.302445 -8.967573 -0.112465 -9.380249 -9.346936 10.551789 10.973058 12.698413 25.200270 -12.248897 -35.727676 -126.319524 -65.007762 71.544882 -10.137679 -5.946073 -17.261514 -10.778257 11.623208 -17.700652 -26.337382 -4.136828 43.453842 150.434401 -58.503133 -102.719304 18.867888 3.717253 -0.065797 -10.411265 -54.844216 -0.035631 -62.192198 83.380265 -70.183581 -3.602125 -9.646704 7.707254 0.138107 -0.487348 0.050808 1.104725 -52.505596 -3.102142 38.185700 83.175952 43.129252 -0.682460 -9.061438 -3.271758 0.130976 0.348475 0.056542
